<svg width="16" height="16" viewBox="0 0 16 16" fill="none" xmlns="http://www.w3.org/2000/svg">
  <rect width="16" height="16" rx="3" fill="#020617"/>
  <rect x="1" y="1" width="14" height="14" rx="2" stroke="#2dd4bf" stroke-width="0.25"/>
  
  <!-- Simplified K -->
  <path d="M3 4h1v8h-1V4z" fill="#2dd4bf"/>
  <path d="M4 8h1l1.5-2h1.5l-2 2.5 2.5 3.5h-1.5l-2-3H4v3h0V8z" fill="#2dd4bf"/>
  
  <!-- Simplified D -->
  <path d="M9 4h2c1.1 0 2 .9 2 2v2c0 1.1-.9 2-2 2H9V4z" fill="#2dd4bf"/>
  <path d="M10 5v6h1c.5 0 1-.5 1-1V6c0-.5-.5-1-1-1h-1z" fill="#020617"/>
</svg>
